<svg width="12" height="11" viewBox="0 0 12 11" fill="none" xmlns="http://www.w3.org/2000/svg">
<rect width="12" height="11" fill="#1E1E1E"/>
<g id="Landing page">
<rect width="1440" height="9062" transform="translate(-993 -3183)" fill="white"/>
<g id="clients">
<rect id="Rectangle 15" x="-893" y="-396" width="1240" height="917" fill="#0B7572"/>
<g id="paper">
<rect id="Rectangle 35" x="-372" y="-311" width="652" height="747" rx="8" fill="white"/>
<path id="Rectangle 37" d="M-340 -112H248V394C248 395.105 247.105 396 246 396H-338C-339.105 396 -340 395.105 -340 394V-112Z" fill="#F9F9FB"/>
<g id="1">
<path id="Vector" d="M6 0L4.14286 3.62531L0 4.20426L3 7.01629L2.28571 11L6 9.12531L9.71429 11L9 7.01629L12 4.20426L7.85714 3.62531L6 0Z" fill="#CACACD"/>
<g id="Group 2">
<path id="Subtract" fill-rule="evenodd" clip-rule="evenodd" d="M5.11925 2.0686L4.34107 3.6283L0.302734 4.20773L3.22705 7.0221L2.53078 11.0091L5.11925 9.66774V2.0686Z" fill="#F8C642"/>
</g>
</g>
</g>
</g>
</g>
</svg>
